REM DIRINDEX 1\2,1\3
REM DIRNAME cjc143,folder01,folder02
TITLE ""
FILE "2000 phrasesTrack57.mp3" MP3
  TRACK 01 AUDIO
    TITLE "2:cjc143_2176"
    INDEX 01 00:00:00
  TRACK 02 AUDIO
    TITLE "0:"
    INDEX 01 00:00:68
  TRACK 03 AUDIO
    TITLE "2:cjc143_2177"
    INDEX 01 00:01:38
  TRACK 04 AUDIO
    TITLE "0:"
    INDEX 01 00:03:19
  TRACK 05 AUDIO
    TITLE "2:cjc143_2178"
    INDEX 01 00:03:64
  TRACK 06 AUDIO
    TITLE "0:"
    INDEX 01 00:05:52
  TRACK 07 AUDIO
    TITLE "2:cjc143_2179"
    INDEX 01 00:06:22
  TRACK 08 AUDIO
    TITLE "0:"
    INDEX 01 00:07:37
  TRACK 09 AUDIO
    TITLE "2:cjc143_2180"
    INDEX 01 00:08:09
  TRACK 10 AUDIO
    TITLE "0:"
    INDEX 01 00:09:26
  TRACK 11 AUDIO
    TITLE "2:cjc143_2181"
    INDEX 01 00:09:71
  TRACK 12 AUDIO
    TITLE "0:"
    INDEX 01 00:11:13
  TRACK 13 AUDIO
    TITLE "2:cjc143_2182"
    INDEX 01 00:11:58
  TRACK 14 AUDIO
    TITLE "0:"
    INDEX 01 00:13:10
  TRACK 15 AUDIO
    TITLE "2:cjc143_2183"
    INDEX 01 00:13:57
  TRACK 16 AUDIO
    TITLE "0:"
    INDEX 01 00:15:11
  TRACK 17 AUDIO
    TITLE "2:cjc143_2184"
    INDEX 01 00:15:56
  TRACK 18 AUDIO
    TITLE "0:"
    INDEX 01 00:17:00
  TRACK 19 AUDIO
    TITLE "2:cjc143_2185"
    INDEX 01 00:17:63
  TRACK 20 AUDIO
    TITLE "0:"
    INDEX 01 00:19:07
  TRACK 21 AUDIO
    TITLE "2:cjc143_2186"
    INDEX 01 00:19:52
  TRACK 22 AUDIO
    TITLE "0:"
    INDEX 01 00:21:06
  TRACK 23 AUDIO
    TITLE "2:cjc143_2187"
    INDEX 01 00:22:11
  TRACK 24 AUDIO
    TITLE "0:"
    INDEX 01 00:23:32
  TRACK 25 AUDIO
    TITLE "2:cjc143_2188"
    INDEX 01 00:24:02
  TRACK 26 AUDIO
    TITLE "0:"
    INDEX 01 00:25:23
  TRACK 27 AUDIO
    TITLE "2:cjc143_2189"
    INDEX 01 00:25:68
  TRACK 28 AUDIO
    TITLE "0:"
    INDEX 01 00:27:20
  TRACK 29 AUDIO
    TITLE "2:cjc143_2190"
    INDEX 01 00:27:65
  TRACK 30 AUDIO
    TITLE "0:"
    INDEX 01 00:29:09
  TRACK 31 AUDIO
    TITLE "2:cjc143_2191"
    INDEX 01 00:29:52
  TRACK 32 AUDIO
    TITLE "0:"
    INDEX 01 00:31:04
  TRACK 33 AUDIO
    TITLE "2:cjc143_2192"
    INDEX 01 00:31:49
  TRACK 34 AUDIO
    TITLE "0:"
    INDEX 01 00:33:09
  TRACK 35 AUDIO
    TITLE "2:cjc143_2193"
    INDEX 01 00:33:54
  TRACK 36 AUDIO
    TITLE "0:"
    INDEX 01 00:35:08
  TRACK 37 AUDIO
    TITLE "2:cjc143_2194"
    INDEX 01 00:35:68
  TRACK 38 AUDIO
    TITLE "0:"
    INDEX 01 00:37:20
  TRACK 39 AUDIO
    TITLE "2:cjc143_2195"
    INDEX 01 00:37:67
  TRACK 40 AUDIO
    TITLE "0:"
    INDEX 01 00:39:43
  TRACK 41 AUDIO
    TITLE "2:cjc143_2196"
    INDEX 01 00:40:11
  TRACK 42 AUDIO
    TITLE "0:"
    INDEX 01 00:41:57
  TRACK 43 AUDIO
    TITLE "2:cjc143_2197"
    INDEX 01 00:42:27
  TRACK 44 AUDIO
    TITLE "0:"
    INDEX 01 00:44:20
  TRACK 45 AUDIO
    TITLE "2:cjc143_2198"
    INDEX 01 00:44:65
  TRACK 46 AUDIO
    TITLE "0:"
    INDEX 01 00:46:51
  TRACK 47 AUDIO
    TITLE "2:cjc143_2199"
    INDEX 01 00:47:21
  TRACK 48 AUDIO
    TITLE "0:"
    INDEX 01 00:49:08
  TRACK 49 AUDIO
    TITLE "2:cjc143_2200"
    INDEX 01 00:49:51
  TRACK 50 AUDIO
    TITLE "0:"
    INDEX 01 00:51:36
  TRACK 51 AUDIO
    TITLE "2:cjc143_2201"
    INDEX 01 00:52:06
  TRACK 52 AUDIO
    TITLE "0:"
    INDEX 01 00:53:74
  TRACK 53 AUDIO
    TITLE "2:cjc143_2202"
    INDEX 01 00:54:46
  TRACK 54 AUDIO
    TITLE "0:"
    INDEX 01 00:55:59
  TRACK 55 AUDIO
    TITLE "2:cjc143_2203"
    INDEX 01 00:56:29
  TRACK 56 AUDIO
    TITLE "0:"
    INDEX 01 00:57:52
  TRACK 57 AUDIO
    TITLE "2:cjc143_2204"
    INDEX 01 00:58:32
  TRACK 58 AUDIO
    TITLE "0:"
    INDEX 01 00:59:65
  TRACK 59 AUDIO
    TITLE "2:cjc143_2205"
    INDEX 01 01:00:37
  TRACK 60 AUDIO
    TITLE "0:"
    INDEX 01 01:01:64
  TRACK 61 AUDIO
    TITLE "2:cjc143_2206"
    INDEX 01 01:02:34
  TRACK 62 AUDIO
    TITLE "0:"
    INDEX 01 01:04:01
  TRACK 63 AUDIO
    TITLE "2:cjc143_2207"
    INDEX 01 01:04:52
  TRACK 64 AUDIO
    TITLE "0:"
    INDEX 01 01:06:28
